<?xml version="1.0" encoding="utf-8"?>
<!-- Svg Vector Icons : http://www.onlinewebfonts.com/icon -->
<!DOCTYPE svg PUBLIC "-//W3C//DTD SVG 1.1//EN" "http://www.w3.org/Graphics/SVG/1.1/DTD/svg11.dtd">
<svg version="1.1" xmlns="http://www.w3.org/2000/svg" xmlns:xlink="http://www.w3.org/1999/xlink" x="0px" y="0px" viewBox="0 0 1000 1000" enable-background="new 0 0 1000 1000" xml:space="preserve">
<metadata> Svg Vector Icons : http://www.onlinewebfonts.com/icon </metadata>
<g><g transform="translate(0.000000,511.000000) scale(0.100000,-0.100000)"><path d="M2225.5,3914.9c-1058-148-1894.9-931.7-2098.2-1964c-39.5-199.4-35.5-688.9,7.9-888.3c146.1-681,523.1-1342.2,1204.1-2118c240.8-274.4,943.5-959.3,1271.2-1243.6c477.7-408.6,1215.9-985,1658.1-1294.9l161.9-112.5l94.8,63.1c199.4,136.2,779.7,574.4,1111.3,838.9c523.1,418.5,917.9,767.8,1328.4,1172.5l373.1,365.2l-134.2,306c-73,167.8-136.2,307.9-138.2,311.9c-2,4-236.9-229-523.1-515.2c-625.7-625.7-961.3-909.9-1810.1-1531.7l-300-221.1l-392.8,298c-726.4,550.7-1352.1,1093.5-1887,1640.3C1362.9-171.1,889.2,573.1,757,1210.7c-98.7,473.7,37.5,1008.7,361.2,1411.3c236.9,292.1,592.2,521.1,975.1,625.7c207.3,55.3,677,61.2,884.3,9.9c319.8-79,637.6-258.6,864.6-485.6c157.9-159.9,244.8-286.2,432.3-637.6c80.9-150,152-272.4,157.9-272.4s75,122.4,155.9,272.4c167.8,309.9,229,406.6,355.3,554.7c201.3,240.8,570.5,469.8,900.1,558.6c223,59.2,661.3,59.2,882.3,0c382.9-104.6,681-272.4,915.9-521.1c292.1-307.9,432.3-609.9,489.5-1050.1l21.7-177.7l240.8,369.1l242.8,371.1l-47.4,122.4c-203.3,540.8-643.5,1032.3-1168.5,1300.8c-365.2,187.5-673.1,260.5-1093.5,262.5c-317.8,0-475.7-23.7-730.3-114.5c-361.2-124.4-617.8-292.1-933.6-609.9l-231-232.9l-223,223c-495.4,501.4-969.2,718.5-1602.8,734.3C2466.3,3928.7,2294.6,3924.8,2225.5,3914.9z"/><path d="M6268,1463.3c-242.8-568.5-467.8-1089.6-497.4-1158.7l-57.2-128.3l-294.1,444.1c-163.8,242.8-302,444.1-311.9,448.1c-7.9,2-189.5-347.4-404.7-775.7l-388.9-779.7H3781H3248v-315.8v-315.8h730.3h730.3l231,463.9c128.3,254.6,238.8,461.9,246.7,459.9c9.9-3.9,157.9-219.1,331.6-477.7l313.8-473.7l57.3,128.3c31.6,69.1,229,529,438.2,1020.5c209.2,489.5,386.9,892.2,394.8,892.2S6933.3,433,7176-133.5L7616.2-1162l116.5,185.6c65.1,100.7,230.9,363.2,371.1,584.3C8241.9-171.1,8360.4,0.7,8366.3-7.2c3.9-7.9,59.2-189.5,120.4-400.7c63.2-211.2,136.2-457.9,161.8-548.7l49.3-161.9h602H9900v315.8v315.8h-363.2h-363.2l-31.6,94.7c-15.8,51.3-146.1,493.5-290.1,981c-142.1,489.5-264.5,898.1-272.4,911.9c-5.9,11.8-197.4-274.4-426.4-635.6c-227-363.2-420.4-659.3-426.3-661.3c-5.9,0-230.9,515.2-501.4,1144.9S6729.9,2493.7,6722,2493.7S6510.8,2029.8,6268,1463.3z"/></g></g>
</svg>